<svg width="39" height="54" viewBox="0 0 39 54" fill="none" xmlns="http://www.w3.org/2000/svg">
<path d="M36.3468 19.9559C34.8369 15.9914 32.6354 12.3196 29.8423 9.10768C25.0087 3.57388 18.653 0 13.65 0C13.3525 0.000219414 13.059 0.06775 12.792 0.197423C12.525 0.327096 12.2915 0.515473 12.1094 0.748136C11.9273 0.980799 11.8015 1.25158 11.7415 1.53975C11.6815 1.82792 11.689 2.12584 11.7634 2.41071C13.4538 8.79911 9.94988 14.1111 6.24122 19.7341C3.16875 24.3916 0 29.2022 0 34.7143C0 45.3479 8.74819 54 19.5 54C30.2518 54 39 45.3479 39 34.7143C39 29.4951 38.1079 24.5302 36.3468 19.9559ZM23.4402 46.61C22.1812 47.9358 20.603 48.2143 19.5 48.2143C18.397 48.2143 16.8188 47.9358 15.5598 46.61C14.3008 45.2841 13.65 43.1807 13.65 40.5C13.65 37.4697 14.7249 35.1627 15.7633 32.9328C16.3666 31.6382 16.9821 30.3208 17.3477 28.9105C17.3865 28.7571 17.4629 28.6155 17.5701 28.4981C17.6773 28.3808 17.812 28.2914 17.9624 28.2376C18.1128 28.1839 18.2742 28.1676 18.4325 28.1902C18.5907 28.2127 18.7409 28.2734 18.8699 28.3669C19.9846 29.2198 20.9757 30.22 21.8156 31.3393C24.0301 34.2321 25.35 37.6578 25.35 40.5C25.35 43.1807 24.6894 45.2937 23.4402 46.61Z" fill="#4CAF50"/>
</svg>
