<svg width="230" height="230" viewBox="0 0 230 230" fill="none" xmlns="http://www.w3.org/2000/svg">
<circle cx="115" cy="115" r="100" fill="#D9D9D9"/>
<path d="M153.333 95.8333C153.333 106 149.295 115.75 142.106 122.939C134.917 130.128 125.167 134.167 115 134.167C104.833 134.167 95.0832 130.128 87.8943 122.939C80.7054 115.75 76.6667 106 76.6667 95.8333C76.6667 85.6667 80.7054 75.9165 87.8943 68.7276C95.0832 61.5387 104.833 57.5 115 57.5C125.167 57.5 134.917 61.5387 142.106 68.7276C149.295 75.9165 153.333 85.6667 153.333 95.8333Z" fill="black"/>
<path fill-rule="evenodd" clip-rule="evenodd" d="M111.09 210.757C59.9774 208.706 19.1667 166.616 19.1667 115C19.1667 62.0713 62.0713 19.1667 115 19.1667C167.929 19.1667 210.833 62.0713 210.833 115C210.833 167.929 167.929 210.833 115 210.833H113.687C112.818 210.833 111.953 210.808 111.09 210.757ZM53.5038 175.471C52.7873 173.413 52.5434 171.221 52.7903 169.056C53.0371 166.891 53.7684 164.809 54.9297 162.966C56.0911 161.122 57.6528 159.564 59.4988 158.407C61.3448 157.249 63.4278 156.523 65.5932 156.28C102.949 152.145 127.281 152.519 164.455 156.367C166.623 156.592 168.711 157.31 170.56 158.465C172.409 159.62 173.97 161.181 175.125 163.03C176.279 164.88 176.996 166.968 177.221 169.136C177.447 171.305 177.174 173.496 176.424 175.543C192.357 159.424 201.28 137.665 201.25 115C201.25 67.3661 162.634 28.7501 115 28.7501C67.3661 28.7501 28.7501 67.3661 28.7501 115C28.7501 138.556 38.1945 159.908 53.5038 175.471Z" fill="black"/>
</svg>
